<svg xmlns="http://www.w3.org/2000/svg" version="1.0" fill="#333"><path d="M249.8 41c-8.4 2.1-16.8 10.7-18.5 18.9-.5 2-.8 32.2-.8 67.1 0 62.7 0 63.6 2.1 68 4.7 9.9 13.1 15.3 23.9 15.4 10.8.1 18.2-4.6 24.1-15.4 1.8-3.3 1.9-6.6 1.9-69.5 0-72.8.4-67.4-6.2-76.3-4.9-6.6-17.4-10.5-26.5-8.2z"/> <path d="M159.7 81c-5 1.3-8.5 3.2-18.8 10.1-40.1 26.9-70.6 68.4-83.8 114.2-6.6 22.6-7.6 30.7-7.6 59.2 0 24.6.2 26.7 2.8 38.9 7.1 33.1 19.3 60.4 38.6 86 42.8 57 116.6 89.3 185.6 81.2 31.7-3.7 56.9-11.8 83.7-26.8 77-43.4 118.8-135.7 100.3-221.7-8.3-38.8-26.6-73.5-53.4-101.4-12.5-12.9-21.6-20.7-35.4-29.9-12.7-8.6-16.8-10.2-25.2-10.2-8 .1-13.1 2.2-18.1 7.6-5.4 5.7-6.9 9.5-6.9 17.8 0 12.4 3.1 16.4 22 29.1 21 13.9 40.6 36.2 52 58.9 16.7 33.3 20.9 73.1 11.4 109.6-12.7 49.1-52.7 91.7-100.7 107.4-18.7 6-27.7 7.4-49.7 7.4-22.5 0-30.4-1.1-48.1-6.9-23.4-7.7-42.9-19.9-61.4-38.4-14.4-14.5-22.7-26-30.5-42.4-8.9-18.8-12.6-32.9-14.6-55.7-2-22.3 1.9-48 10.7-69.9 11.9-29.8 33.8-55.6 63-74.3 3.9-2.5 8.3-5.9 9.8-7.4 11.3-12.3 7.6-32.7-7.3-40.4-4.5-2.2-13.4-3.2-18.4-2z"/> <path d="M161.3 171.5c-8.6 3.7-10.1 17.2-2.6 23.2 6 4.9 15.3 3.8 19.9-2.2 9-11.9-3.4-27.1-17.3-21zM359.3 197c-6.6 4-8.6 10.3-5.4 17.4 1.6 3.8 2.9 5 6.7 6.7 6.2 2.8 10.6 1.9 15.6-3.1 3.4-3.3 3.8-4.3 3.8-8.6 0-8.6-5.5-14.4-13.7-14.4-2.1 0-5.2.9-7 2zM173 247.7c-6.3 2.3-15.2 11.4-17.3 17.7-5.3 15.7 1.6 32.2 16.2 39 7.1 3.2 18.9 2.9 25.7-.6 22.9-12 23-43.2.1-55-5.6-2.9-18.3-3.5-24.7-1.1zM313.4 274c-18.1 3.8-30.7 21.9-27.5 39.5 2 10.8 9.2 20.4 19 25.2 4.9 2.5 6.7 2.8 15.1 2.8 8.4 0 10.2-.3 15.2-2.8 16.1-7.9 23.6-28.4 16.3-44.5-6.4-14.3-23.3-23.3-38.1-20.2zM208.9 355.9c-5.2 5.2-3.3 13.8 3.6 16.1 4.4 1.5 8 .4 11-3.2 5.5-6.6 1.2-15.8-7.5-15.8-3.3 0-4.8.6-7.1 2.9z"/></svg>